<svg width="233" height="233" viewBox="0 0 233 233" fill="none" xmlns="http://www.w3.org/2000/svg">
<path d="M171.587 154.584L130.394 208.776C126.754 212.413 121.818 214.456 116.672 214.456C111.525 214.456 106.59 212.413 102.949 208.776L61.7467 154.584C52.6667 141.872 43.4885 128.883 40.4921 113.817C37.4956 98.7515 39.0339 81.1355 44.9124 66.944C50.791 52.7525 60.7457 40.6229 73.5178 32.0889C86.29 23.555 101.306 19 116.667 19C132.028 19 147.043 23.555 159.816 32.0889C172.588 40.6229 182.542 52.7525 188.421 66.944C194.299 81.1355 195.838 98.7515 192.841 113.817C189.845 128.883 179.667 142.872 171.587 154.584Z" fill="#FDEEEE"/>
<path d="M116.065 83.7293V96.5729L123.289 102.995M87.1667 93.3827C87.9031 86.1718 91.2753 79.4837 96.64 74.5944C102.005 69.7051 108.986 66.9569 116.253 66.8741C123.519 66.7913 130.562 69.3798 136.037 74.1456C141.512 78.9113 145.037 85.5209 145.938 92.7131C146.84 99.9054 145.055 107.177 140.924 113.14C136.793 119.104 130.606 123.342 123.543 125.046C116.48 126.749 109.035 125.8 102.628 122.378C96.2222 118.956 91.3031 113.302 88.8098 106.494M87.1667 122.883V106.494H103.598" stroke="white" stroke-width="30" stroke-linecap="round" stroke-linejoin="round"/>
<path d="M116.065 83.7293V96.5729L123.289 102.995M87.1667 93.3827C87.9031 86.1718 91.2753 79.4837 96.64 74.5944C102.005 69.7051 108.986 66.9569 116.253 66.8741C123.519 66.7913 130.562 69.3798 136.037 74.1456C141.512 78.9113 145.037 85.5209 145.938 92.7131C146.84 99.9054 145.055 107.177 140.924 113.14C136.793 119.104 130.606 123.342 123.543 125.046C116.48 126.749 109.035 125.8 102.628 122.378C96.2222 118.956 91.3031 113.302 88.8098 106.494M87.1667 122.883V106.494H103.598" stroke="#DE0000" stroke-width="10" stroke-linecap="round" stroke-linejoin="round"/>
<path d="M165.107 149.889L124.399 203.444C122.296 205.377 119.539 206.456 116.672 206.456C113.804 206.456 111.047 205.377 108.944 203.444L68.1872 149.837C58.9516 136.906 50.9364 125.319 48.3384 112.257C45.6373 98.6759 47.056 82.6735 52.3034 70.0056C57.5764 57.2758 66.5058 46.3956 77.9624 38.7407C89.4189 31.0858 102.888 27 116.667 27C130.445 27 143.915 31.0858 155.371 38.7407C166.828 46.3956 175.757 57.2758 181.03 70.0056C186.277 82.6735 187.696 98.6759 184.995 112.257C182.52 124.699 174.293 136.6 166.246 148.24C165.866 148.79 165.486 149.34 165.107 149.889Z" stroke="url(#paint0_linear_27_12)" stroke-width="16" stroke-linecap="round" stroke-linejoin="round"/>
<path d="M171.587 154.584L130.394 208.776C126.754 212.413 121.818 214.456 116.672 214.456C111.525 214.456 106.59 212.413 102.949 208.776L61.7467 154.584C52.6667 141.872 43.4885 128.883 40.4921 113.817C37.4956 98.7515 39.0339 81.1355 44.9124 66.944C50.791 52.7525 60.7457 40.6229 73.5178 32.0889C86.29 23.555 101.306 19 116.667 19C132.028 19 147.043 23.555 159.816 32.0889C172.588 40.6229 182.542 52.7525 188.421 66.944C194.299 81.1355 195.838 98.7515 192.841 113.817C189.845 128.883 179.667 142.872 171.587 154.584Z" stroke="#DE0000" stroke-width="12" stroke-linecap="round" stroke-linejoin="round"/>
<defs>
<linearGradient id="paint0_linear_27_12" x1="116.667" y1="35.8722" x2="116.667" y2="183.872" gradientUnits="userSpaceOnUse">
<stop stop-color="white"/>
<stop offset="1" stop-color="#DE0000"/>
</linearGradient>
</defs>
</svg>
